# Blender v2.79 (sub 0) OBJ File: 'crab.blend'
# www.blender.org
mtllib crab.mtl
o Cube.015_Cube.005
v -0.791230 0.722666 -0.065967
v -0.791230 0.696426 -0.034759
v -0.791230 0.962435 0.135632
v -0.791230 0.936195 0.166841
v -0.750455 0.722666 -0.065967
v -0.750455 0.696426 -0.034759
v -0.750455 0.962435 0.135632
v -0.750455 0.936195 0.166841
vn -1.0000 0.0000 0.0000
vn 0.0000 0.7654 0.6436
vn 1.0000 0.0000 0.0000
vn 0.0000 -0.7654 -0.6436
vn 0.0000 0.6436 -0.7654
vn 0.0000 -0.6436 0.7654
usemtl Material.005
s off
f 1//1 2//1 4//1 3//1
f 3//2 4//2 8//2 7//2
f 7//3 8//3 6//3 5//3
f 5//4 6//4 2//4 1//4
f 3//5 7//5 5//5 1//5
f 8//6 4//6 2//6 6//6
o Cube.014_Cube.005
v -0.804387 0.718757 -0.056898
v -0.804387 0.750485 -0.031288
v -0.804387 0.915509 -0.300660
v -0.804387 0.947237 -0.275050
v -0.763612 0.718757 -0.056898
v -0.763612 0.750485 -0.031288
v -0.763612 0.915509 -0.300660
v -0.763612 0.947237 -0.275050
vn -1.0000 -0.0000 0.0000
vn 0.0000 0.6281 -0.7781
vn 1.0000 0.0000 0.0000
vn 0.0000 -0.6281 0.7781
vn 0.0000 -0.7781 -0.6281
vn 0.0000 0.7781 0.6281
usemtl Material.005
s off
f 9//7 10//7 12//7 11//7
f 11//8 12//8 16//8 15//8
f 15//9 16//9 14//9 13//9
f 13//10 14//10 10//10 9//10
f 11//11 15//11 13//11 9//11
f 16//12 12//12 10//12 14//12
o Cube.013_Cube.004
v -1.228245 0.713994 -0.320876
v -1.228245 0.852108 -0.320876
v -1.228245 0.713994 -0.692426
v -1.228245 0.852108 -0.692426
v -0.751829 0.713994 -0.320876
v -0.751829 0.852108 -0.320876
v -0.751829 0.713994 -0.692426
v -0.751829 0.852108 -0.692426
vn -1.0000 0.0000 0.0000
vn 0.0000 0.0000 -1.0000
vn 1.0000 0.0000 0.0000
vn 0.0000 0.0000 1.0000
vn 0.0000 -1.0000 0.0000
vn 0.0000 1.0000 0.0000
usemtl Material.004
s off
f 17//13 18//13 20//13 19//13
f 19//14 20//14 24//14 23//14
f 23//15 24//15 22//15 21//15
f 21//16 22//16 18//16 17//16
f 19//17 23//17 21//17 17//17
f 24//18 20//18 18//18 22//18
o Cube.012_Cube
v 0.776108 0.583707 -0.751291
v 0.776108 0.583707 0.751291
v -0.776108 0.583707 0.751291
v -0.776108 0.583707 -0.751292
v 0.776108 1.116123 -0.751291
v 0.776107 1.116123 0.751292
v -0.776108 1.116123 0.751291
v -0.776108 1.116123 -0.751291
vn 0.0000 -1.0000 -0.0000
vn 0.0000 1.0000 0.0000
vn 1.0000 0.0000 0.0000
vn -0.0000 -0.0000 1.0000
vn -1.0000 -0.0000 -0.0000
vn 0.0000 0.0000 -1.0000
usemtl Material
s off
f 25//19 26//19 27//19 28//19
f 29//20 32//20 31//20 30//20
f 25//21 29//21 30//21 26//21
f 26//22 30//22 31//22 27//22
f 27//23 31//23 32//23 28//23
f 29//24 25//24 28//24 32//24
o Cube.011_Cube.004
v -1.228245 0.713994 0.679124
v -1.228245 0.852108 0.679124
v -1.228245 0.713994 0.307574
v -1.228245 0.852108 0.307574
v -0.751829 0.713994 0.679124
v -0.751829 0.852108 0.679124
v -0.751829 0.713994 0.307574
v -0.751829 0.852108 0.307574
vn -1.0000 0.0000 0.0000
vn 0.0000 0.0000 -1.0000
vn 1.0000 0.0000 0.0000
vn 0.0000 0.0000 1.0000
vn 0.0000 -1.0000 0.0000
vn 0.0000 1.0000 0.0000
usemtl Material.004
s off
f 33//25 34//25 36//25 35//25
f 35//26 36//26 40//26 39//26
f 39//27 40//27 38//27 37//27
f 37//28 38//28 34//28 33//28
f 35//29 39//29 37//29 33//29
f 40//30 36//30 34//30 38//30
o Cube.010_Cube.003
v -0.848600 1.085355 0.173792
v -0.848600 1.230334 0.173792
v -0.848600 1.085355 0.028813
v -0.848600 1.230334 0.028813
v -0.703621 1.085355 0.173792
v -0.703621 1.230334 0.173792
v -0.703621 1.085355 0.028813
v -0.703621 1.230334 0.028813
vn -1.0000 0.0000 0.0000
vn 0.0000 0.0000 -1.0000
vn 1.0000 0.0000 0.0000
vn 0.0000 0.0000 1.0000
vn 0.0000 -1.0000 0.0000
vn 0.0000 1.0000 0.0000
usemtl Material.003
s off
f 41//31 42//31 44//31 43//31
f 43//32 44//32 48//32 47//32
f 47//33 48//33 46//33 45//33
f 45//34 46//34 42//34 41//34
f 43//35 47//35 45//35 41//35
f 48//36 44//36 42//36 46//36
o Cube.009_Cube.003
v -0.848600 1.085355 -0.090958
v -0.848600 1.230334 -0.090958
v -0.848600 1.085355 -0.235937
v -0.848600 1.230334 -0.235937
v -0.703621 1.085355 -0.090958
v -0.703621 1.230334 -0.090958
v -0.703621 1.085355 -0.235937
v -0.703621 1.230334 -0.235937
vn -1.0000 0.0000 0.0000
vn 0.0000 0.0000 -1.0000
vn 1.0000 0.0000 0.0000
vn 0.0000 0.0000 1.0000
vn 0.0000 -1.0000 0.0000
vn 0.0000 1.0000 0.0000
usemtl Material.003
s off
f 49//37 50//37 52//37 51//37
f 51//38 52//38 56//38 55//38
f 55//39 56//39 54//39 53//39
f 53//40 54//40 50//40 49//40
f 51//41 55//41 53//41 49//41
f 56//42 52//42 50//42 54//42
o Cube.008_Cube.002
v -0.848066 1.013430 0.355102
v -0.848066 1.386652 0.355102
v -0.848066 1.013430 -0.018120
v -0.848066 1.386652 -0.018120
v -0.474844 1.013430 0.355102
v -0.474844 1.386652 0.355102
v -0.474844 1.013430 -0.018120
v -0.474844 1.386652 -0.018120
vn -1.0000 0.0000 0.0000
vn 0.0000 0.0000 -1.0000
vn 1.0000 0.0000 0.0000
vn 0.0000 0.0000 1.0000
vn 0.0000 -1.0000 0.0000
vn 0.0000 1.0000 0.0000
usemtl Material.002
s off
f 57//43 58//43 60//43 59//43
f 59//44 60//44 64//44 63//44
f 63//45 64//45 62//45 61//45
f 61//46 62//46 58//46 57//46
f 59//47 63//47 61//47 57//47
f 64//48 60//48 58//48 62//48
o Cube.007_Cube.002
v -0.848066 1.013430 -0.034691
v -0.848066 1.386652 -0.034691
v -0.848066 1.013430 -0.407913
v -0.848066 1.386652 -0.407913
v -0.474844 1.013430 -0.034691
v -0.474844 1.386652 -0.034691
v -0.474844 1.013430 -0.407913
v -0.474844 1.386652 -0.407913
vn -1.0000 0.0000 0.0000
vn 0.0000 0.0000 -1.0000
vn 1.0000 0.0000 0.0000
vn 0.0000 0.0000 1.0000
vn 0.0000 -1.0000 0.0000
vn 0.0000 1.0000 0.0000
usemtl Material.002
s off
f 65//49 66//49 68//49 67//49
f 67//50 68//50 72//50 71//50
f 71//51 72//51 70//51 69//51
f 69//52 70//52 66//52 65//52
f 67//53 71//53 69//53 65//53
f 72//54 68//54 66//54 70//54
o Cube.006_Cube.001
v -0.410950 0.027135 0.955727
v -0.410950 0.771032 0.955727
v -0.410949 0.027135 1.176456
v -0.410949 0.771032 1.176456
v -0.585564 0.027135 0.955727
v -0.585564 0.771032 0.955727
v -0.585563 0.027135 1.176456
v -0.585563 0.771032 1.176456
v -0.410950 0.967815 0.955727
v -0.410949 0.967815 1.176456
v -0.585563 0.967815 1.176456
v -0.585564 0.967815 0.955727
v -0.585564 0.771032 0.718992
v -0.410950 0.771032 0.718992
v -0.585564 0.967815 0.718992
v -0.410950 0.967815 0.718992
vn 1.0000 0.0000 -0.0000
vn 0.0000 0.0000 1.0000
vn -1.0000 0.0000 0.0000
vn 0.0000 0.0000 -1.0000
vn 0.0000 -1.0000 0.0000
vn 0.0000 1.0000 0.0000
usemtl Material.001
s off
f 73//55 74//55 76//55 75//55
f 75//56 76//56 80//56 79//56
f 79//57 80//57 78//57 77//57
f 77//58 78//58 74//58 73//58
f 75//59 79//59 77//59 73//59
f 78//57 80//57 83//57 84//57
f 83//60 82//60 81//60 84//60
f 76//55 74//55 81//55 82//55
f 78//57 84//57 87//57 85//57
f 80//56 76//56 82//56 83//56
f 86//58 85//58 87//58 88//58
f 84//60 81//60 88//60 87//60
f 74//59 78//59 85//59 86//59
f 81//55 74//55 86//55 88//55
o Cube.005_Cube.001
v 0.589050 0.027135 0.955727
v 0.589050 0.771032 0.955727
v 0.589051 0.027135 1.176456
v 0.589051 0.771032 1.176456
v 0.414436 0.027135 0.955727
v 0.414436 0.771032 0.955727
v 0.414437 0.027135 1.176456
v 0.414437 0.771032 1.176456
v 0.589050 0.967815 0.955727
v 0.589051 0.967815 1.176456
v 0.414437 0.967815 1.176456
v 0.414436 0.967815 0.955727
v 0.414436 0.771032 0.718992
v 0.589050 0.771032 0.718992
v 0.414436 0.967815 0.718992
v 0.589050 0.967815 0.718992
vn 1.0000 0.0000 -0.0000
vn 0.0000 0.0000 1.0000
vn -1.0000 0.0000 0.0000
vn 0.0000 0.0000 -1.0000
vn 0.0000 -1.0000 0.0000
vn 0.0000 1.0000 0.0000
usemtl Material.001
s off
f 89//61 90//61 92//61 91//61
f 91//62 92//62 96//62 95//62
f 95//63 96//63 94//63 93//63
f 93//64 94//64 90//64 89//64
f 91//65 95//65 93//65 89//65
f 94//63 96//63 99//63 100//63
f 99//66 98//66 97//66 100//66
f 92//61 90//61 97//61 98//61
f 94//63 100//63 103//63 101//63
f 96//62 92//62 98//62 99//62
f 102//64 101//64 103//64 104//64
f 100//66 97//66 104//66 103//66
f 90//65 94//65 101//65 102//65
f 97//61 90//61 102//61 104//61
o Cube.004_Cube.001
v 0.100684 0.027135 0.955727
v 0.100684 0.771032 0.955727
v 0.100684 0.027135 1.176456
v 0.100684 0.771032 1.176456
v -0.073930 0.027135 0.955727
v -0.073930 0.771032 0.955727
v -0.073930 0.027135 1.176456
v -0.073930 0.771032 1.176456
v 0.100684 0.967815 0.955727
v 0.100684 0.967815 1.176456
v -0.073930 0.967815 1.176456
v -0.073930 0.967815 0.955727
v -0.073930 0.771032 0.718992
v 0.100684 0.771032 0.718992
v -0.073930 0.967815 0.718992
v 0.100684 0.967815 0.718992
vn 1.0000 0.0000 -0.0000
vn 0.0000 0.0000 1.0000
vn -1.0000 0.0000 0.0000
vn 0.0000 0.0000 -1.0000
vn 0.0000 -1.0000 0.0000
vn 0.0000 1.0000 0.0000
usemtl Material.001
s off
f 105//67 106//67 108//67 107//67
f 107//68 108//68 112//68 111//68
f 111//69 112//69 110//69 109//69
f 109//70 110//70 106//70 105//70
f 107//71 111//71 109//71 105//71
f 110//69 112//69 115//69 116//69
f 115//72 114//72 113//72 116//72
f 108//67 106//67 113//67 114//67
f 110//69 116//69 119//69 117//69
f 112//68 108//68 114//68 115//68
f 118//70 117//70 119//70 120//70
f 116//72 113//72 120//72 119//72
f 106//71 110//71 117//71 118//71
f 113//67 106//67 118//67 120//67
o Cube.003_Cube.001
v -0.089441 0.027135 -0.973228
v -0.089441 0.771032 -0.973228
v -0.089441 0.027135 -1.193957
v -0.089441 0.771032 -1.193957
v 0.085173 0.027135 -0.973228
v 0.085173 0.771032 -0.973228
v 0.085173 0.027135 -1.193957
v 0.085173 0.771032 -1.193957
v -0.089441 0.967815 -0.973228
v -0.089441 0.967815 -1.193957
v 0.085173 0.967815 -1.193957
v 0.085173 0.967815 -0.973228
v 0.085173 0.771032 -0.736493
v -0.089441 0.771032 -0.736493
v 0.085173 0.967815 -0.736493
v -0.089441 0.967815 -0.736493
vn -1.0000 0.0000 0.0000
vn 0.0000 0.0000 -1.0000
vn 1.0000 0.0000 0.0000
vn 0.0000 0.0000 1.0000
vn 0.0000 -1.0000 0.0000
vn 0.0000 1.0000 0.0000
usemtl Material.001
s off
f 121//73 122//73 124//73 123//73
f 123//74 124//74 128//74 127//74
f 127//75 128//75 126//75 125//75
f 125//76 126//76 122//76 121//76
f 123//77 127//77 125//77 121//77
f 126//75 128//75 131//75 132//75
f 131//78 130//78 129//78 132//78
f 124//73 122//73 129//73 130//73
f 126//75 132//75 135//75 133//75
f 128//74 124//74 130//74 131//74
f 134//76 133//76 135//76 136//76
f 132//78 129//78 136//78 135//78
f 122//77 126//77 133//77 134//77
f 129//73 122//73 134//73 136//73
o Cube.002_Cube.001
v -0.577808 0.027135 -0.973228
v -0.577808 0.771032 -0.973228
v -0.577808 0.027135 -1.193957
v -0.577808 0.771032 -1.193957
v -0.403194 0.027135 -0.973228
v -0.403194 0.771032 -0.973228
v -0.403194 0.027135 -1.193957
v -0.403194 0.771032 -1.193957
v -0.577808 0.967815 -0.973228
v -0.577808 0.967815 -1.193957
v -0.403194 0.967815 -1.193957
v -0.403194 0.967815 -0.973228
v -0.403194 0.771032 -0.736493
v -0.577808 0.771032 -0.736493
v -0.403194 0.967815 -0.736493
v -0.577808 0.967815 -0.736493
vn -1.0000 0.0000 0.0000
vn 0.0000 0.0000 -1.0000
vn 1.0000 0.0000 0.0000
vn 0.0000 0.0000 1.0000
vn 0.0000 -1.0000 0.0000
vn 0.0000 1.0000 0.0000
usemtl Material.001
s off
f 137//79 138//79 140//79 139//79
f 139//80 140//80 144//80 143//80
f 143//81 144//81 142//81 141//81
f 141//82 142//82 138//82 137//82
f 139//83 143//83 141//83 137//83
f 142//81 144//81 147//81 148//81
f 147//84 146//84 145//84 148//84
f 140//79 138//79 145//79 146//79
f 142//81 148//81 151//81 149//81
f 144//80 140//80 146//80 147//80
f 150//82 149//82 151//82 152//82
f 148//84 145//84 152//84 151//84
f 138//83 142//83 149//83 150//83
f 145//79 138//79 150//79 152//79
o Cube.001
v 0.422192 0.027135 -0.973228
v 0.422192 0.771032 -0.973228
v 0.422192 0.027135 -1.193957
v 0.422192 0.771032 -1.193957
v 0.596806 0.027135 -0.973228
v 0.596806 0.771032 -0.973228
v 0.596806 0.027135 -1.193957
v 0.596806 0.771032 -1.193957
v 0.422192 0.967815 -0.973228
v 0.422192 0.967815 -1.193957
v 0.596806 0.967815 -1.193957
v 0.596806 0.967815 -0.973228
v 0.596806 0.771032 -0.736493
v 0.422192 0.771032 -0.736493
v 0.596806 0.967815 -0.736493
v 0.422192 0.967815 -0.736493
vn -1.0000 0.0000 0.0000
vn 0.0000 0.0000 -1.0000
vn 1.0000 0.0000 0.0000
vn 0.0000 0.0000 1.0000
vn 0.0000 -1.0000 0.0000
vn 0.0000 1.0000 0.0000
usemtl Material.001
s off
f 153//85 154//85 156//85 155//85
f 155//86 156//86 160//86 159//86
f 159//87 160//87 158//87 157//87
f 157//88 158//88 154//88 153//88
f 155//89 159//89 157//89 153//89
f 158//87 160//87 163//87 164//87
f 163//90 162//90 161//90 164//90
f 156//85 154//85 161//85 162//85
f 158//87 164//87 167//87 165//87
f 160//86 156//86 162//86 163//86
f 166//88 165//88 167//88 168//88
f 164//90 161//90 168//90 167//90
f 154//89 158//89 165//89 166//89
f 161//85 154//85 166//85 168//85
o Cube
v 0.776108 0.583707 -0.751291
v 0.776108 0.583707 0.751291
v -0.776108 0.583707 0.751291
v -0.776108 0.583707 -0.751292
v 0.776108 1.116123 -0.751291
v 0.776107 1.116123 0.751292
v -0.776108 1.116123 0.751291
v -0.776108 1.116123 -0.751291
vn 0.0000 -1.0000 -0.0000
vn 0.0000 1.0000 0.0000
vn 1.0000 0.0000 0.0000
vn -0.0000 -0.0000 1.0000
vn -1.0000 -0.0000 -0.0000
vn 0.0000 0.0000 -1.0000
usemtl Material
s off
f 169//91 170//91 171//91 172//91
f 173//92 176//92 175//92 174//92
f 169//93 173//93 174//93 170//93
f 170//94 174//94 175//94 171//94
f 171//95 175//95 176//95 172//95
f 173//96 169//96 172//96 176//96
