# Blender v2.79 (sub 0) OBJ File: 'plant.blend'
# www.blender.org
mtllib plant.mtl
o Icosphere_Icosphere.001
v 0.038406 -0.004291 0.002749
v 0.101695 0.044058 0.048731
v 0.014232 0.044058 0.077149
v -0.039824 0.044058 0.002749
v 0.014232 0.044058 -0.071652
v 0.101695 0.044058 -0.043233
v 0.062580 0.122289 0.077149
v -0.024883 0.122289 0.048731
v -0.024883 0.122289 -0.043233
v 0.062580 0.122289 -0.071652
v 0.116636 0.122289 0.002749
v 0.038406 0.170638 0.002749
vn 0.1876 -0.7947 0.5774
vn 0.6071 -0.7947 0.0000
vn -0.4911 -0.7947 0.3568
vn -0.4911 -0.7947 -0.3568
vn 0.1876 -0.7947 -0.5774
vn 0.9822 -0.1876 0.0000
vn 0.3035 -0.1876 0.9342
vn -0.7946 -0.1876 0.5774
vn -0.7946 -0.1876 -0.5774
vn 0.3035 -0.1876 -0.9342
vn 0.7946 0.1876 0.5774
vn -0.3035 0.1876 0.9342
vn -0.9822 0.1876 0.0000
vn -0.3035 0.1876 -0.9342
vn 0.7946 0.1876 -0.5774
vn 0.4911 0.7947 0.3568
vn -0.1876 0.7947 0.5774
vn -0.6071 0.7947 0.0000
vn -0.1876 0.7947 -0.5774
vn 0.4911 0.7947 -0.3568
usemtl Material.001
s off
f 1//1 2//1 3//1
f 2//2 1//2 6//2
f 1//3 3//3 4//3
f 1//4 4//4 5//4
f 1//5 5//5 6//5
f 2//6 6//6 11//6
f 3//7 2//7 7//7
f 4//8 3//8 8//8
f 5//9 4//9 9//9
f 6//10 5//10 10//10
f 2//11 11//11 7//11
f 3//12 7//12 8//12
f 4//13 8//13 9//13
f 5//14 9//14 10//14
f 6//15 10//15 11//15
f 7//16 11//16 12//16
f 8//17 7//17 12//17
f 9//18 8//18 12//18
f 10//19 9//19 12//19
f 11//20 10//20 12//20
o Cube.003_Cube
v 0.141905 -0.024541 -0.035642
v -0.067715 -0.018867 -0.048044
v -0.067365 -0.023407 -0.056042
v 0.142255 -0.029081 -0.043641
v 0.091973 0.188489 -0.179002
v 0.010170 0.190703 -0.183842
v 0.010383 0.187943 -0.188705
v 0.092186 0.185729 -0.183865
v 0.078419 0.247290 -0.236392
v 0.033541 0.248505 -0.239047
v 0.078561 0.245449 -0.239636
v 0.033683 0.246664 -0.242291
v 0.073013 0.250524 -0.259664
v 0.041819 0.251368 -0.261510
v 0.073111 0.249244 -0.261919
v 0.041917 0.250088 -0.263764
vn -0.0526 -0.8695 0.4912
vn 0.0250 -0.6793 -0.7335
vn -0.0343 0.5524 0.8329
vn -0.9545 0.2395 -0.1778
vn 0.0351 -0.5405 -0.8406
vn 0.9803 0.1872 -0.0633
vn -0.0170 -0.9863 -0.1638
vn 0.9834 0.1729 -0.0551
vn -0.9593 0.2255 -0.1700
vn -0.0237 0.6955 0.7182
vn 0.0526 0.8695 -0.4912
vn 0.9189 0.3591 -0.1636
vn -0.8725 0.4076 -0.2696
vn 0.0189 0.9909 0.1333
usemtl Material
s off
f 14//21 16//21 13//21
f 19//22 23//22 20//22
f 13//23 18//23 14//23
f 14//24 19//24 15//24
f 19//25 16//25 15//25
f 13//26 20//26 17//26
f 24//27 27//27 23//27
f 20//28 21//28 17//28
f 19//29 22//29 24//29
f 18//30 21//30 22//30
f 27//31 26//31 25//31
f 23//32 25//32 21//32
f 24//33 26//33 28//33
f 22//34 25//34 26//34
f 14//21 15//21 16//21
f 19//22 24//22 23//22
f 13//23 17//23 18//23
f 14//24 18//24 19//24
f 19//25 20//25 16//25
f 13//26 16//26 20//26
f 24//27 28//27 27//27
f 20//28 23//28 21//28
f 19//29 18//29 22//29
f 18//30 17//30 21//30
f 27//31 28//31 26//31
f 23//32 27//32 25//32
f 24//33 22//33 26//33
f 22//34 21//34 25//34
o Cube.002_Cube
v 0.089288 -0.024541 0.111068
v 0.101689 -0.018867 -0.098552
v 0.109688 -0.023407 -0.098202
v 0.097286 -0.029081 0.111418
v 0.232648 0.188489 0.061136
v 0.237487 0.190703 -0.020667
v 0.242350 0.187943 -0.020454
v 0.237510 0.185729 0.061349
v 0.290037 0.247290 0.047582
v 0.292692 0.248505 0.002704
v 0.293281 0.245449 0.047724
v 0.295936 0.246664 0.002846
v 0.313309 0.250524 0.042175
v 0.315155 0.251368 0.010981
v 0.315564 0.249244 0.042274
v 0.317410 0.250088 0.011080
vn -0.4912 -0.8695 -0.0526
vn 0.7335 -0.6793 0.0250
vn -0.8329 0.5524 -0.0343
vn 0.1778 0.2395 -0.9545
vn 0.8406 -0.5405 0.0351
vn 0.0633 0.1872 0.9803
vn 0.1638 -0.9863 -0.0170
vn 0.0551 0.1729 0.9834
vn 0.1700 0.2255 -0.9593
vn -0.7182 0.6955 -0.0237
vn 0.4912 0.8695 0.0526
vn 0.1636 0.3591 0.9189
vn 0.2696 0.4076 -0.8725
vn -0.1333 0.9909 0.0189
usemtl Material
s off
f 30//35 32//35 29//35
f 35//36 39//36 36//36
f 29//37 34//37 30//37
f 30//38 35//38 31//38
f 35//39 32//39 31//39
f 29//40 36//40 33//40
f 40//41 43//41 39//41
f 36//42 37//42 33//42
f 35//43 38//43 40//43
f 34//44 37//44 38//44
f 43//45 42//45 41//45
f 39//46 41//46 37//46
f 40//47 42//47 44//47
f 38//48 41//48 42//48
f 30//35 31//35 32//35
f 35//36 40//36 39//36
f 29//37 33//37 34//37
f 30//38 34//38 35//38
f 35//39 36//39 32//39
f 29//40 32//40 36//40
f 40//41 44//41 43//41
f 36//42 39//42 37//42
f 35//43 34//43 38//43
f 34//44 33//44 37//44
f 43//45 44//45 42//45
f 39//46 43//46 41//46
f 40//47 38//47 42//47
f 38//48 37//48 41//48
o Cube.001_Cube
v -0.055132 -0.024541 0.044409
v 0.154489 -0.018867 0.056811
v 0.154138 -0.023407 0.064810
v -0.055482 -0.029081 0.052408
v -0.005200 0.188489 0.187769
v 0.076603 0.190703 0.192609
v 0.076390 0.187943 0.197472
v -0.005413 0.185729 0.192632
v 0.008354 0.247290 0.245159
v 0.053232 0.248505 0.247814
v 0.008212 0.245449 0.248403
v 0.053090 0.246664 0.251058
v 0.013761 0.250524 0.268431
v 0.044955 0.251368 0.270277
v 0.013662 0.249244 0.270686
v 0.044856 0.250088 0.272531
vn 0.0526 -0.8695 -0.4912
vn -0.0250 -0.6793 0.7335
vn 0.0343 0.5524 -0.8329
vn 0.9545 0.2395 0.1778
vn -0.0351 -0.5405 0.8406
vn -0.9803 0.1872 0.0633
vn 0.0170 -0.9863 0.1638
vn -0.9834 0.1729 0.0551
vn 0.9593 0.2255 0.1700
vn 0.0237 0.6955 -0.7182
vn -0.0526 0.8695 0.4912
vn -0.9189 0.3591 0.1636
vn 0.8725 0.4076 0.2696
vn -0.0189 0.9909 -0.1333
usemtl Material
s off
f 46//49 48//49 45//49
f 51//50 55//50 52//50
f 45//51 50//51 46//51
f 46//52 51//52 47//52
f 51//53 48//53 47//53
f 45//54 52//54 49//54
f 56//55 59//55 55//55
f 52//56 53//56 49//56
f 51//57 54//57 56//57
f 50//58 53//58 54//58
f 59//59 58//59 57//59
f 55//60 57//60 53//60
f 56//61 58//61 60//61
f 54//62 57//62 58//62
f 46//49 47//49 48//49
f 51//50 56//50 55//50
f 45//51 49//51 50//51
f 46//52 50//52 51//52
f 51//53 52//53 48//53
f 45//54 48//54 52//54
f 56//55 60//55 59//55
f 52//56 55//56 53//56
f 51//57 50//57 54//57
f 50//58 49//58 53//58
f 59//59 60//59 58//59
f 55//60 59//60 57//60
f 56//61 54//61 58//61
f 54//62 53//62 57//62
o Cube
v -0.013103 -0.024541 -0.091414
v -0.025505 -0.018867 0.118206
v -0.033504 -0.023407 0.117856
v -0.021102 -0.029081 -0.091764
v -0.156463 0.188489 -0.041482
v -0.161303 0.190703 0.040321
v -0.166166 0.187943 0.040108
v -0.161326 0.185729 -0.041695
v -0.213853 0.247290 -0.027928
v -0.216508 0.248505 0.016950
v -0.217097 0.245449 -0.028070
v -0.219752 0.246664 0.016808
v -0.237125 0.250524 -0.022521
v -0.238971 0.251368 0.008672
v -0.239380 0.249244 -0.022620
v -0.241225 0.250088 0.008574
vn 0.4912 -0.8695 0.0526
vn -0.7335 -0.6793 -0.0250
vn 0.8329 0.5524 0.0343
vn -0.1778 0.2395 0.9545
vn -0.8406 -0.5405 -0.0351
vn -0.0633 0.1872 -0.9803
vn -0.1638 -0.9863 0.0170
vn -0.0551 0.1729 -0.9834
vn -0.1700 0.2255 0.9593
vn 0.7182 0.6955 0.0237
vn -0.4912 0.8695 -0.0526
vn -0.1636 0.3591 -0.9189
vn -0.2696 0.4076 0.8725
vn 0.1333 0.9909 -0.0189
usemtl Material
s off
f 62//63 64//63 61//63
f 67//64 71//64 68//64
f 61//65 66//65 62//65
f 62//66 67//66 63//66
f 67//67 64//67 63//67
f 61//68 68//68 65//68
f 72//69 75//69 71//69
f 68//70 69//70 65//70
f 67//71 70//71 72//71
f 66//72 69//72 70//72
f 75//73 74//73 73//73
f 71//74 73//74 69//74
f 72//75 74//75 76//75
f 70//76 73//76 74//76
f 62//63 63//63 64//63
f 67//64 72//64 71//64
f 61//65 65//65 66//65
f 62//66 66//66 67//66
f 67//67 68//67 64//67
f 61//68 64//68 68//68
f 72//69 76//69 75//69
f 68//70 71//70 69//70
f 67//71 66//71 70//71
f 66//72 65//72 69//72
f 75//73 76//73 74//73
f 71//74 75//74 73//74
f 72//75 70//75 74//75
f 70//76 69//76 73//76
